<svg width="115" height="19" viewBox="0 0 115 19" fill="none" xmlns="http://www.w3.org/2000/svg">
<path d="M16.0456 6.93466H12.8581C12.7672 6.41193 12.5996 5.94886 12.3553 5.54545C12.111 5.13636 11.807 4.78977 11.4434 4.50568C11.0797 4.22159 10.6649 4.00852 10.199 3.86648C9.73881 3.71875 9.24165 3.64489 8.70756 3.64489C7.7587 3.64489 6.91779 3.88352 6.18483 4.36079C5.45188 4.83239 4.87802 5.52557 4.46324 6.44034C4.04847 7.34943 3.84108 8.46023 3.84108 9.77273C3.84108 11.108 4.04847 12.233 4.46324 13.1477C4.8837 14.0568 5.45756 14.7443 6.18483 15.2102C6.91779 15.6705 7.75586 15.9006 8.69904 15.9006C9.22177 15.9006 9.7104 15.8324 10.1649 15.696C10.6252 15.554 11.0371 15.3466 11.4007 15.0739C11.7701 14.8011 12.0797 14.4659 12.3297 14.0682C12.5854 13.6705 12.7615 13.2159 12.8581 12.7045L16.0456 12.7216C15.9263 13.5511 15.6678 14.3295 15.2701 15.0568C14.878 15.7841 14.3638 16.4261 13.7274 16.983C13.0911 17.5341 12.3468 17.9659 11.4945 18.2784C10.6422 18.5852 9.6962 18.7386 8.65643 18.7386C7.12233 18.7386 5.75302 18.3835 4.54847 17.6733C3.34392 16.9631 2.39506 15.9375 1.70188 14.5966C1.0087 13.2557 0.662107 11.6477 0.662107 9.77273C0.662107 7.89205 1.01154 6.28409 1.7104 4.94886C2.40927 3.60795 3.36097 2.58239 4.56552 1.87216C5.77006 1.16193 7.1337 0.806818 8.65643 0.806818C9.62802 0.806818 10.5314 0.943181 11.3667 1.21591C12.2019 1.48864 12.9462 1.8892 13.5996 2.41761C14.253 2.94034 14.7899 3.58239 15.2104 4.34375C15.6365 5.09943 15.9149 5.96307 16.0456 6.93466ZM21.8901 1.04545V18.5H18.8049V1.04545H21.8901ZM30.8581 18.7557C29.5456 18.7557 28.4121 18.483 27.4576 17.9375C26.5087 17.3864 25.7786 16.608 25.2672 15.6023C24.7559 14.5909 24.5002 13.4006 24.5002 12.0312C24.5002 10.6847 24.7559 9.50284 25.2672 8.4858C25.7843 7.46307 26.5059 6.66761 27.432 6.09943C28.3581 5.52557 29.4462 5.23864 30.6962 5.23864C31.503 5.23864 32.2644 5.36932 32.9803 5.63068C33.7019 5.88636 34.3382 6.28409 34.8894 6.82386C35.4462 7.36364 35.8837 8.05114 36.2019 8.88636C36.5201 9.71591 36.6792 10.7045 36.6792 11.8523V12.7983H25.949V10.7188H33.7218C33.7161 10.1278 33.5882 9.60227 33.3382 9.14205C33.0882 8.67614 32.7388 8.30966 32.2899 8.04261C31.8468 7.77557 31.3297 7.64205 30.7388 7.64205C30.1081 7.64205 29.5542 7.79545 29.0769 8.10227C28.5996 8.40341 28.2274 8.80114 27.9604 9.29545C27.699 9.78409 27.5655 10.321 27.5598 10.9062V12.7216C27.5598 13.483 27.699 14.1364 27.9774 14.6818C28.2559 15.2216 28.6451 15.6364 29.1451 15.9261C29.6451 16.2102 30.2303 16.3523 30.9007 16.3523C31.3496 16.3523 31.7559 16.2898 32.1195 16.1648C32.4831 16.0341 32.7985 15.8438 33.0655 15.5938C33.3326 15.3438 33.5343 15.0341 33.6706 14.6648L36.5513 14.9886C36.3695 15.75 36.0229 16.4148 35.5115 16.983C35.0059 17.5455 34.3581 17.983 33.5684 18.2955C32.7786 18.6023 31.8752 18.7557 30.8581 18.7557ZM43.0563 18.7642C42.2267 18.7642 41.4796 18.6165 40.8148 18.321C40.1557 18.0199 39.633 17.5767 39.2466 16.9915C38.8659 16.4062 38.6756 15.6847 38.6756 14.8267C38.6756 14.0881 38.812 13.4773 39.0847 12.9943C39.3574 12.5114 39.7296 12.125 40.2012 11.8352C40.6728 11.5455 41.204 11.3267 41.7949 11.179C42.3915 11.0256 43.008 10.9148 43.6444 10.8466C44.4114 10.767 45.0336 10.696 45.5108 10.6335C45.9881 10.5653 46.3347 10.4631 46.5506 10.3267C46.7722 10.1847 46.883 9.96591 46.883 9.67045V9.61932C46.883 8.97727 46.6926 8.48011 46.312 8.12784C45.9313 7.77557 45.383 7.59943 44.6671 7.59943C43.9114 7.59943 43.312 7.7642 42.8688 8.09375C42.4313 8.4233 42.1358 8.8125 41.9824 9.26136L39.1017 8.85227C39.329 8.05682 39.704 7.39205 40.2267 6.85795C40.7495 6.31818 41.3887 5.91477 42.1444 5.64773C42.9 5.375 43.7353 5.23864 44.65 5.23864C45.2807 5.23864 45.9086 5.3125 46.5336 5.46023C47.1586 5.60795 47.7296 5.85227 48.2466 6.19318C48.7637 6.52841 49.1784 6.9858 49.4909 7.56534C49.8091 8.14489 49.9682 8.86932 49.9682 9.73864V18.5H47.0023V16.7017H46.9C46.7125 17.0653 46.4483 17.4062 46.1074 17.7244C45.7722 18.0369 45.3489 18.2898 44.8375 18.483C44.3319 18.6705 43.7381 18.7642 43.0563 18.7642ZM43.8574 16.4972C44.4767 16.4972 45.0137 16.375 45.4682 16.1307C45.9228 15.8807 46.2722 15.5511 46.5165 15.142C46.7665 14.733 46.8915 14.2869 46.8915 13.804V12.2614C46.7949 12.3409 46.6301 12.4148 46.3972 12.483C46.1699 12.5511 45.9142 12.6108 45.6301 12.6619C45.3461 12.7131 45.0648 12.7585 44.7864 12.7983C44.508 12.8381 44.2665 12.8722 44.062 12.9006C43.6017 12.9631 43.1898 13.0653 42.8262 13.2074C42.4625 13.3494 42.1756 13.5483 41.9654 13.804C41.7551 14.054 41.65 14.3778 41.65 14.7756C41.65 15.3438 41.8574 15.7727 42.2722 16.0625C42.687 16.3523 43.2154 16.4972 43.8574 16.4972ZM53.0705 18.5V5.40909H56.062V7.59091H56.1983C56.437 6.83523 56.8461 6.25284 57.4256 5.84375C58.0108 5.42898 58.6784 5.22159 59.4284 5.22159C59.5989 5.22159 59.7892 5.23011 59.9995 5.24716C60.2154 5.25852 60.3944 5.27841 60.5364 5.30682V8.14489C60.4057 8.09943 60.1983 8.05966 59.9142 8.02557C59.6358 7.9858 59.3659 7.96591 59.1046 7.96591C58.5421 7.96591 58.0364 8.08807 57.5875 8.33239C57.1444 8.57102 56.7949 8.90341 56.5392 9.32955C56.2836 9.75568 56.1557 10.2472 56.1557 10.804V18.5H53.0705ZM62.7225 18.5V1.04545H65.8844V15.8494H73.5719V18.5H62.7225ZM76.1799 18.5V5.40909H79.2651V18.5H76.1799ZM77.731 3.55114C77.2424 3.55114 76.8219 3.3892 76.4696 3.06534C76.1174 2.73579 75.9412 2.34091 75.9412 1.88068C75.9412 1.41477 76.1174 1.01989 76.4696 0.696022C76.8219 0.366477 77.2424 0.201704 77.731 0.201704C78.2253 0.201704 78.6458 0.366477 78.9924 0.696022C79.3446 1.01989 79.5208 1.41477 79.5208 1.88068C79.5208 2.34091 79.3446 2.73579 78.9924 3.06534C78.6458 3.3892 78.2253 3.55114 77.731 3.55114ZM85.5229 10.8295V18.5H82.4377V5.40909H85.3865V7.63352H85.5399C85.8411 6.90057 86.3212 6.31818 86.9803 5.88636C87.6451 5.45455 88.4661 5.23864 89.4434 5.23864C90.3468 5.23864 91.1337 5.43182 91.8042 5.81818C92.4803 6.20455 93.003 6.7642 93.3723 7.49716C93.7473 8.23011 93.932 9.11932 93.9263 10.1648V18.5H90.8411V10.642C90.8411 9.76705 90.6138 9.08239 90.1593 8.58807C89.7104 8.09375 89.0882 7.84659 88.2928 7.84659C87.753 7.84659 87.2729 7.96591 86.8524 8.20455C86.4377 8.4375 86.111 8.77557 85.8723 9.21875C85.6394 9.66193 85.5229 10.1989 85.5229 10.8295ZM99.8752 14.392L99.8667 10.6676H100.361L105.066 5.40909H108.671L102.884 11.8523H102.244L99.8752 14.392ZM97.0627 18.5V1.04545H100.148V18.5H97.0627ZM105.279 18.5L101.017 12.5426L103.097 10.3693L108.969 18.5H105.279Z" fill="#101828"/>
<path d="M112.627 18.6875C112.11 18.6875 111.667 18.5057 111.298 18.142C110.928 17.7784 110.747 17.3352 110.752 16.8125C110.747 16.3011 110.928 15.8636 111.298 15.5C111.667 15.1364 112.11 14.9545 112.627 14.9545C113.127 14.9545 113.562 15.1364 113.931 15.5C114.306 15.8636 114.497 16.3011 114.502 16.8125C114.497 17.1591 114.406 17.4744 114.23 17.7585C114.059 18.0426 113.832 18.2699 113.548 18.4403C113.269 18.6051 112.963 18.6875 112.627 18.6875Z" fill="#528BFF"/>
</svg>
